<?xml version="1.0" encoding="utf-8" standalone="no"?>
<!DOCTYPE svg PUBLIC "-//W3C//DTD SVG 1.1//EN"
  "http://www.w3.org/Graphics/SVG/1.1/DTD/svg11.dtd">
<svg xmlns:xlink="http://www.w3.org/1999/xlink" width="589.448874pt" height="86.4pt" viewBox="0 0 589.448874 86.4" xmlns="http://www.w3.org/2000/svg" version="1.1">
 <metadata>
  <rdf:RDF xmlns:dc="http://purl.org/dc/elements/1.1/" xmlns:cc="http://creativecommons.org/ns#" xmlns:rdf="http://www.w3.org/1999/02/22-rdf-syntax-ns#">
   <cc:Work>
    <dc:type rdf:resource="http://purl.org/dc/dcmitype/StillImage"/>
    <dc:date>2023-07-03T17:19:17.885702</dc:date>
    <dc:format>image/svg+xml</dc:format>
    <dc:creator>
     <cc:Agent>
      <dc:title>Matplotlib v3.7.1, https://matplotlib.org/</dc:title>
     </cc:Agent>
    </dc:creator>
   </cc:Work>
  </rdf:RDF>
 </metadata>
 <defs>
  <style type="text/css">*{stroke-linejoin: round; stroke-linecap: butt}</style>
 </defs>
 <g id="figure_1">
  <g id="patch_1">
   <path d="M 0 86.4 
L 589.448874 86.4 
L 589.448874 0 
L 0 0 
z
" style="fill: #ffffff"/>
  </g>
  <g id="axes_1">
   <g id="PatchCollection_1">
    <path d="M 7.2 78.511977 
L 15.572093 78.511977 
L 15.572093 6.511977 
L 7.2 6.511977 
z
" clip-path="url(#p1b2e992f89)" style="fill: #c6dbef"/>
    <path d="M 15.572093 78.511977 
L 23.944186 78.511977 
L 23.944186 6.511977 
L 15.572093 6.511977 
z
" clip-path="url(#p1b2e992f89)" style="fill: #fcbba1"/>
    <path d="M 23.944186 78.511977 
L 32.316279 78.511977 
L 32.316279 6.511977 
L 23.944186 6.511977 
z
" clip-path="url(#p1b2e992f89)" style="fill: #6baed6"/>
    <path d="M 32.316279 78.511977 
L 40.688372 78.511977 
L 40.688372 6.511977 
L 32.316279 6.511977 
z
" clip-path="url(#p1b2e992f89)" style="fill: #deebf7"/>
    <path d="M 40.688372 78.511977 
L 49.060465 78.511977 
L 49.060465 6.511977 
L 40.688372 6.511977 
z
" clip-path="url(#p1b2e992f89)" style="fill: #6baed6"/>
    <path d="M 49.060465 78.511977 
L 57.432558 78.511977 
L 57.432558 6.511977 
L 49.060465 6.511977 
z
" clip-path="url(#p1b2e992f89)" style="fill: #08306b"/>
    <path d="M 57.432558 78.511977 
L 65.804651 78.511977 
L 65.804651 6.511977 
L 57.432558 6.511977 
z
" clip-path="url(#p1b2e992f89)" style="fill: #fee0d2"/>
    <path d="M 65.804651 78.511977 
L 74.176744 78.511977 
L 74.176744 6.511977 
L 65.804651 6.511977 
z
" clip-path="url(#p1b2e992f89)" style="fill: #fc9272"/>
    <path d="M 74.176744 78.511977 
L 82.548837 78.511977 
L 82.548837 6.511977 
L 74.176744 6.511977 
z
" clip-path="url(#p1b2e992f89)" style="fill: #deebf7"/>
    <path d="M 82.548837 78.511977 
L 90.92093 78.511977 
L 90.92093 6.511977 
L 82.548837 6.511977 
z
" clip-path="url(#p1b2e992f89)" style="fill: #9ecae1"/>
    <path d="M 90.92093 78.511977 
L 99.293023 78.511977 
L 99.293023 6.511977 
L 90.92093 6.511977 
z
" clip-path="url(#p1b2e992f89)" style="fill: #c6dbef"/>
    <path d="M 99.293023 78.511977 
L 107.665116 78.511977 
L 107.665116 6.511977 
L 99.293023 6.511977 
z
" clip-path="url(#p1b2e992f89)" style="fill: #deebf7"/>
    <path d="M 107.665116 78.511977 
L 116.037209 78.511977 
L 116.037209 6.511977 
L 107.665116 6.511977 
z
" clip-path="url(#p1b2e992f89)" style="fill: #fc9272"/>
    <path d="M 116.037209 78.511977 
L 124.409302 78.511977 
L 124.409302 6.511977 
L 116.037209 6.511977 
z
" clip-path="url(#p1b2e992f89)" style="fill: #c6dbef"/>
    <path d="M 124.409302 78.511977 
L 132.781395 78.511977 
L 132.781395 6.511977 
L 124.409302 6.511977 
z
" clip-path="url(#p1b2e992f89)" style="fill: #fcbba1"/>
    <path d="M 132.781395 78.511977 
L 141.153488 78.511977 
L 141.153488 6.511977 
L 132.781395 6.511977 
z
" clip-path="url(#p1b2e992f89)" style="fill: #fb6a4a"/>
    <path d="M 141.153488 78.511977 
L 149.525581 78.511977 
L 149.525581 6.511977 
L 141.153488 6.511977 
z
" clip-path="url(#p1b2e992f89)" style="fill: #9ecae1"/>
    <path d="M 149.525581 78.511977 
L 157.897674 78.511977 
L 157.897674 6.511977 
L 149.525581 6.511977 
z
" clip-path="url(#p1b2e992f89)" style="fill: #fcbba1"/>
    <path d="M 157.897674 78.511977 
L 166.269767 78.511977 
L 166.269767 6.511977 
L 157.897674 6.511977 
z
" clip-path="url(#p1b2e992f89)" style="fill: #fc9272"/>
    <path d="M 166.269767 78.511977 
L 174.64186 78.511977 
L 174.64186 6.511977 
L 166.269767 6.511977 
z
" clip-path="url(#p1b2e992f89)" style="fill: #9ecae1"/>
    <path d="M 174.64186 78.511977 
L 183.013953 78.511977 
L 183.013953 6.511977 
L 174.64186 6.511977 
z
" clip-path="url(#p1b2e992f89)" style="fill: #9ecae1"/>
    <path d="M 183.013953 78.511977 
L 191.386047 78.511977 
L 191.386047 6.511977 
L 183.013953 6.511977 
z
" clip-path="url(#p1b2e992f89)" style="fill: #9ecae1"/>
    <path d="M 191.386047 78.511977 
L 199.75814 78.511977 
L 199.75814 6.511977 
L 191.386047 6.511977 
z
" clip-path="url(#p1b2e992f89)" style="fill: #c6dbef"/>
    <path d="M 199.75814 78.511977 
L 208.130233 78.511977 
L 208.130233 6.511977 
L 199.75814 6.511977 
z
" clip-path="url(#p1b2e992f89)" style="fill: #fc9272"/>
    <path d="M 208.130233 78.511977 
L 216.502326 78.511977 
L 216.502326 6.511977 
L 208.130233 6.511977 
z
" clip-path="url(#p1b2e992f89)" style="fill: #fb6a4a"/>
    <path d="M 216.502326 78.511977 
L 224.874419 78.511977 
L 224.874419 6.511977 
L 216.502326 6.511977 
z
" clip-path="url(#p1b2e992f89)" style="fill: #fcbba1"/>
    <path d="M 224.874419 78.511977 
L 233.246512 78.511977 
L 233.246512 6.511977 
L 224.874419 6.511977 
z
" clip-path="url(#p1b2e992f89)" style="fill: #fee0d2"/>
    <path d="M 233.246512 78.511977 
L 241.618605 78.511977 
L 241.618605 6.511977 
L 233.246512 6.511977 
z
" clip-path="url(#p1b2e992f89)" style="fill: #c6dbef"/>
    <path d="M 241.618605 78.511977 
L 249.990698 78.511977 
L 249.990698 6.511977 
L 241.618605 6.511977 
z
" clip-path="url(#p1b2e992f89)" style="fill: #4292c6"/>
    <path d="M 249.990698 78.511977 
L 258.362791 78.511977 
L 258.362791 6.511977 
L 249.990698 6.511977 
z
" clip-path="url(#p1b2e992f89)" style="fill: #c6dbef"/>
    <path d="M 258.362791 78.511977 
L 266.734884 78.511977 
L 266.734884 6.511977 
L 258.362791 6.511977 
z
" clip-path="url(#p1b2e992f89)" style="fill: #fee0d2"/>
    <path d="M 266.734884 78.511977 
L 275.106977 78.511977 
L 275.106977 6.511977 
L 266.734884 6.511977 
z
" clip-path="url(#p1b2e992f89)" style="fill: #2171b5"/>
    <path d="M 275.106977 78.511977 
L 283.47907 78.511977 
L 283.47907 6.511977 
L 275.106977 6.511977 
z
" clip-path="url(#p1b2e992f89)" style="fill: #c6dbef"/>
    <path d="M 283.47907 78.511977 
L 291.851163 78.511977 
L 291.851163 6.511977 
L 283.47907 6.511977 
z
" clip-path="url(#p1b2e992f89)" style="fill: #deebf7"/>
    <path d="M 291.851163 78.511977 
L 300.223256 78.511977 
L 300.223256 6.511977 
L 291.851163 6.511977 
z
" clip-path="url(#p1b2e992f89)" style="fill: #cb181d"/>
    <path d="M 300.223256 78.511977 
L 308.595349 78.511977 
L 308.595349 6.511977 
L 300.223256 6.511977 
z
" clip-path="url(#p1b2e992f89)" style="fill: #67000d"/>
    <path d="M 308.595349 78.511977 
L 316.967442 78.511977 
L 316.967442 6.511977 
L 308.595349 6.511977 
z
" clip-path="url(#p1b2e992f89)" style="fill: #cb181d"/>
    <path d="M 316.967442 78.511977 
L 325.339535 78.511977 
L 325.339535 6.511977 
L 316.967442 6.511977 
z
" clip-path="url(#p1b2e992f89)" style="fill: #fee0d2"/>
    <path d="M 325.339535 78.511977 
L 333.711628 78.511977 
L 333.711628 6.511977 
L 325.339535 6.511977 
z
" clip-path="url(#p1b2e992f89)" style="fill: #fb6a4a"/>
    <path d="M 333.711628 78.511977 
L 342.083721 78.511977 
L 342.083721 6.511977 
L 333.711628 6.511977 
z
" clip-path="url(#p1b2e992f89)" style="fill: #fcbba1"/>
    <path d="M 342.083721 78.511977 
L 350.455814 78.511977 
L 350.455814 6.511977 
L 342.083721 6.511977 
z
" clip-path="url(#p1b2e992f89)" style="fill: #fc9272"/>
    <path d="M 350.455814 78.511977 
L 358.827907 78.511977 
L 358.827907 6.511977 
L 350.455814 6.511977 
z
" clip-path="url(#p1b2e992f89)" style="fill: #fcbba1"/>
    <path d="M 358.827907 78.511977 
L 367.2 78.511977 
L 367.2 6.511977 
L 358.827907 6.511977 
z
" clip-path="url(#p1b2e992f89)" style="fill: #fee0d2"/>
   </g>
   <g id="line2d_1">
    <path d="M 7.2 48.116576 
L 15.572093 36.59473 
L 23.944186 59.298572 
L 32.316279 45.98864 
L 40.688372 58.173658 
L 49.060465 78.511977 
L 57.432558 43.106629 
L 65.804651 33.588762 
L 74.176744 47.575295 
L 82.548837 52.942309 
L 90.92093 50.05892 
L 99.293023 46.237588 
L 107.665116 29.779481 
L 116.037209 50.805764 
L 124.409302 38.46029 
L 132.781395 28.977545 
L 141.153488 55.852554 
L 149.525581 35.479458 
L 157.897674 32.909751 
L 166.269767 53.467406 
L 174.64186 53.306262 
L 183.013953 52.693361 
L 191.386047 48.711227 
L 199.75814 32.182534 
L 208.130233 25.332851 
L 216.502326 36.378494 
L 224.874419 41.9614 
L 233.246512 52.100431 
L 241.618605 64.590522 
L 249.990698 52.012972 
L 258.362791 41.533746 
L 266.734884 67.195006 
L 275.106977 51.812918 
L 283.47907 43.88515 
L 291.851163 18.771714 
L 300.223256 6.511977 
L 308.595349 17.508725 
L 316.967442 42.454131 
L 325.339535 26.721519 
L 333.711628 37.62461 
L 342.083721 31.984546 
L 350.455814 36.961782 
L 358.827907 42.534359 
" clip-path="url(#p1b2e992f89)" style="fill: none; stroke: #ffffff; stroke-width: 3; stroke-linecap: square"/>
   </g>
   <g id="line2d_2">
    <path d="M 7.2 43.2 
L 367.2 43.2 
" clip-path="url(#p1b2e992f89)" style="fill: none; stroke-dasharray: 5.55,2.4; stroke-dashoffset: 0; stroke: #ffffff; stroke-width: 1.5"/>
   </g>
   <g id="text_1">
    <!-- Seattle, WA -->
    <g transform="translate(383.944186 53.254327) scale(0.3 -0.3)">
     <defs>
      <path id="DejaVuSans-Bold-53" d="M 3834 4519 
L 3834 3531 
Q 3450 3703 3084 3790 
Q 2719 3878 2394 3878 
Q 1963 3878 1756 3759 
Q 1550 3641 1550 3391 
Q 1550 3203 1689 3098 
Q 1828 2994 2194 2919 
L 2706 2816 
Q 3484 2659 3812 2340 
Q 4141 2022 4141 1434 
Q 4141 663 3683 286 
Q 3225 -91 2284 -91 
Q 1841 -91 1394 -6 
Q 947 78 500 244 
L 500 1259 
Q 947 1022 1364 901 
Q 1781 781 2169 781 
Q 2563 781 2772 912 
Q 2981 1044 2981 1288 
Q 2981 1506 2839 1625 
Q 2697 1744 2272 1838 
L 1806 1941 
Q 1106 2091 782 2419 
Q 459 2747 459 3303 
Q 459 4000 909 4375 
Q 1359 4750 2203 4750 
Q 2588 4750 2994 4692 
Q 3400 4634 3834 4519 
z
" transform="scale(0.015625)"/>
      <path id="DejaVuSans-Bold-65" d="M 4031 1759 
L 4031 1441 
L 1416 1441 
Q 1456 1047 1700 850 
Q 1944 653 2381 653 
Q 2734 653 3104 758 
Q 3475 863 3866 1075 
L 3866 213 
Q 3469 63 3072 -14 
Q 2675 -91 2278 -91 
Q 1328 -91 801 392 
Q 275 875 275 1747 
Q 275 2603 792 3093 
Q 1309 3584 2216 3584 
Q 3041 3584 3536 3087 
Q 4031 2591 4031 1759 
z
M 2881 2131 
Q 2881 2450 2695 2645 
Q 2509 2841 2209 2841 
Q 1884 2841 1681 2658 
Q 1478 2475 1428 2131 
L 2881 2131 
z
" transform="scale(0.015625)"/>
      <path id="DejaVuSans-Bold-61" d="M 2106 1575 
Q 1756 1575 1579 1456 
Q 1403 1338 1403 1106 
Q 1403 894 1545 773 
Q 1688 653 1941 653 
Q 2256 653 2472 879 
Q 2688 1106 2688 1447 
L 2688 1575 
L 2106 1575 
z
M 3816 1997 
L 3816 0 
L 2688 0 
L 2688 519 
Q 2463 200 2181 54 
Q 1900 -91 1497 -91 
Q 953 -91 614 226 
Q 275 544 275 1050 
Q 275 1666 698 1953 
Q 1122 2241 2028 2241 
L 2688 2241 
L 2688 2328 
Q 2688 2594 2478 2717 
Q 2269 2841 1825 2841 
Q 1466 2841 1156 2769 
Q 847 2697 581 2553 
L 581 3406 
Q 941 3494 1303 3539 
Q 1666 3584 2028 3584 
Q 2975 3584 3395 3211 
Q 3816 2838 3816 1997 
z
" transform="scale(0.015625)"/>
      <path id="DejaVuSans-Bold-74" d="M 1759 4494 
L 1759 3500 
L 2913 3500 
L 2913 2700 
L 1759 2700 
L 1759 1216 
Q 1759 972 1856 886 
Q 1953 800 2241 800 
L 2816 800 
L 2816 0 
L 1856 0 
Q 1194 0 917 276 
Q 641 553 641 1216 
L 641 2700 
L 84 2700 
L 84 3500 
L 641 3500 
L 641 4494 
L 1759 4494 
z
" transform="scale(0.015625)"/>
      <path id="DejaVuSans-Bold-6c" d="M 538 4863 
L 1656 4863 
L 1656 0 
L 538 0 
L 538 4863 
z
" transform="scale(0.015625)"/>
      <path id="DejaVuSans-Bold-2c" d="M 653 1209 
L 1778 1209 
L 1778 256 
L 1006 -909 
L 341 -909 
L 653 256 
L 653 1209 
z
" transform="scale(0.015625)"/>
      <path id="DejaVuSans-Bold-20" transform="scale(0.015625)"/>
      <path id="DejaVuSans-Bold-57" d="M 191 4666 
L 1344 4666 
L 2150 1275 
L 2950 4666 
L 4109 4666 
L 4909 1275 
L 5716 4666 
L 6859 4666 
L 5759 0 
L 4372 0 
L 3525 3547 
L 2688 0 
L 1300 0 
L 191 4666 
z
" transform="scale(0.015625)"/>
      <path id="DejaVuSans-Bold-41" d="M 3419 850 
L 1538 850 
L 1241 0 
L 31 0 
L 1759 4666 
L 3194 4666 
L 4922 0 
L 3713 0 
L 3419 850 
z
M 1838 1716 
L 3116 1716 
L 2478 3572 
L 1838 1716 
z
" transform="scale(0.015625)"/>
     </defs>
     <use xlink:href="#DejaVuSans-Bold-53"/>
     <use xlink:href="#DejaVuSans-Bold-65" x="72.021484"/>
     <use xlink:href="#DejaVuSans-Bold-61" x="139.84375"/>
     <use xlink:href="#DejaVuSans-Bold-74" x="207.324219"/>
     <use xlink:href="#DejaVuSans-Bold-74" x="255.126953"/>
     <use xlink:href="#DejaVuSans-Bold-6c" x="302.929688"/>
     <use xlink:href="#DejaVuSans-Bold-65" x="337.207031"/>
     <use xlink:href="#DejaVuSans-Bold-2c" x="405.029297"/>
     <use xlink:href="#DejaVuSans-Bold-20" x="443.017578"/>
     <use xlink:href="#DejaVuSans-Bold-57" x="477.832031"/>
     <use xlink:href="#DejaVuSans-Bold-41" x="583.634766"/>
    </g>
   </g>
  </g>
 </g>
 <defs>
  <clipPath id="p1b2e992f89">
   <rect x="7.2" y="7.2" width="360" height="72"/>
  </clipPath>
 </defs>
</svg>
